# xmcd
#
# Track frame offsets: 
#        150
#        7064
#        27549
#        47926
#        65564
#        81279
#        100214
#        120772
#        138122
#        156956
#        177790
#        194840
#        211677
#        233835
#        252717
#        272785
#        285167
#
# Disc length: 4064 seconds
#
# Revision: 2
# Processed by: cddbd v1.5.2PL0 Copyright (c) Steve Scherf et al.
# Submitted via: ExactAudioCopyFreeDBPlugin 1.0
#
DISCID=f20fde11
DTITLE=Lloyd - Street Love
DYEAR=2007
DGENRE=R&B
TTITLE0=Lloyd (Intro)
TTITLE1=You Feat. Lil Wayne
TTITLE2=Certified
TTITLE3=I Don't Mind
TTITLE4=Get It Shawty
TTITLE5=Incredible
TTITLE6=Valentine
TTITLE7=Hazel
TTITLE8=Player's Prayer
TTITLE9=Killing Me
TTITLE10=Take You Home
TTITLE11=What You Wanna Do
TTITLE12=Street Love
TTITLE13=One For Me
TTITLE14=I Want You Remix Feat. Andress 3000 and NaS
TTITLE15=Drop It On The One
TTITLE16=Hit The Floor Feat. Matty P.
EXTD=
EXTT0=
EXTT1=
EXTT2=
EXTT3=
EXTT4=
EXTT5=
EXTT6=
EXTT7=
EXTT8=
EXTT9=
EXTT10=
EXTT11=
EXTT12=
EXTT13=
EXTT14=
EXTT15=
EXTT16=
PLAYORDER=
